<svg xmlns="http://www.w3.org/2000/svg" viewBox="0 0 1280 1280" width="1280" height="1280">
	<style>
		tspan { white-space:pre }
		.shp0 { fill: #e62117 } 
		.shp1 { fill: #ffffff } 
	</style>
	<g id="Layer 1">
		<path id="&lt;Path&gt;" class="shp0" d="M639.99 1279.99C286.53 1279.99 0 993.46 0 640C0 286.52 286.53 0 639.99 0C993.46 0 1280 286.52 1280 640C1280 993.46 993.46 1279.99 639.99 1279.99Z" />
		<path id="&lt;Compound Path&gt;" fill-rule="evenodd" class="shp1" d="M453.92 1044.08C405.82 1071.19 384.64 1042.16 390.38 956.99C396.02 874.07 473.23 854.5 493.15 818.22C507.16 792.74 528.58 767.12 464.39 765L349.09 756.24C287.26 756.35 293.75 706.88 293.02 714.07C292.68 681.57 300.99 615.34 324.35 522.95C374.86 401.66 372.27 409.38 381.86 379.31C417.9 267.44 516.53 292.01 516.1 292.01L724.77 317.27C770.08 323.39 795.92 326.43 802.26 326.41L802.26 747.7C767.89 786.6 796.22 754.65 762.1 791.63C736.58 815.99 689.85 852.64 645.64 882.98C598.19 919.04 549.24 933.48 514.59 979.2M855.78 328.11L1003.74 330.86L1003.74 745.76L854.23 746.54L855.78 328.11Z" />
	</g>
</svg>